<mxfile host="app.diagrams.net" modified="2023-11-08T14:24:52.615Z" agent="Mozilla/5.0 (Windows NT 10.0; Win64; x64) AppleWebKit/537.36 (KHTML, like Gecko) Chrome/119.0.0.0 Safari/537.36" etag="D4Vv2Oz16tZzm-TFKUNc" version="22.0.8" type="github">
  <diagram name="PÃ¡gina-1" id="Ooj2YnOHwvQbVnlfAeNY">
    <mxGraphModel dx="1655" dy="768" grid="1" gridSize="10" guides="1" tooltips="1" connect="1" arrows="1" fold="1" page="1" pageScale="1" pageWidth="827" pageHeight="1169" math="0" shadow="0">
      <root>
        <mxCell id="0" />
        <mxCell id="1" parent="0" />
        <mxCell id="5b584qVkZsWunDgtIIDM-6" style="edgeStyle=orthogonalEdgeStyle;rounded=0;orthogonalLoop=1;jettySize=auto;html=1;" edge="1" parent="1" source="5b584qVkZsWunDgtIIDM-1" target="5b584qVkZsWunDgtIIDM-2">
          <mxGeometry relative="1" as="geometry" />
        </mxCell>
        <mxCell id="5b584qVkZsWunDgtIIDM-1" value="int-dags-stg" style="rounded=0;whiteSpace=wrap;html=1;" vertex="1" parent="1">
          <mxGeometry x="150" y="160" width="120" height="60" as="geometry" />
        </mxCell>
        <mxCell id="5b584qVkZsWunDgtIIDM-7" style="edgeStyle=orthogonalEdgeStyle;rounded=0;orthogonalLoop=1;jettySize=auto;html=1;entryX=0;entryY=0.5;entryDx=0;entryDy=0;" edge="1" parent="1" source="5b584qVkZsWunDgtIIDM-2" target="5b584qVkZsWunDgtIIDM-3">
          <mxGeometry relative="1" as="geometry" />
        </mxCell>
        <mxCell id="5b584qVkZsWunDgtIIDM-2" value="int-dags-rdv" style="rounded=0;whiteSpace=wrap;html=1;" vertex="1" parent="1">
          <mxGeometry x="310" y="160" width="120" height="60" as="geometry" />
        </mxCell>
        <mxCell id="5b584qVkZsWunDgtIIDM-8" value="" style="edgeStyle=orthogonalEdgeStyle;rounded=0;orthogonalLoop=1;jettySize=auto;html=1;" edge="1" parent="1" source="5b584qVkZsWunDgtIIDM-3" target="5b584qVkZsWunDgtIIDM-4">
          <mxGeometry relative="1" as="geometry" />
        </mxCell>
        <mxCell id="5b584qVkZsWunDgtIIDM-3" value="int-dags-cdv" style="rounded=0;whiteSpace=wrap;html=1;" vertex="1" parent="1">
          <mxGeometry x="474" y="160" width="120" height="60" as="geometry" />
        </mxCell>
        <mxCell id="5b584qVkZsWunDgtIIDM-96" value="" style="edgeStyle=orthogonalEdgeStyle;rounded=0;orthogonalLoop=1;jettySize=auto;html=1;" edge="1" parent="1" source="5b584qVkZsWunDgtIIDM-4" target="5b584qVkZsWunDgtIIDM-89">
          <mxGeometry relative="1" as="geometry" />
        </mxCell>
        <mxCell id="5b584qVkZsWunDgtIIDM-4" value="int-dags-bdv&amp;nbsp;" style="rounded=0;whiteSpace=wrap;html=1;" vertex="1" parent="1">
          <mxGeometry x="640" y="160" width="120" height="60" as="geometry" />
        </mxCell>
        <mxCell id="5b584qVkZsWunDgtIIDM-10" style="edgeStyle=orthogonalEdgeStyle;rounded=0;orthogonalLoop=1;jettySize=auto;html=1;" edge="1" parent="1" source="5b584qVkZsWunDgtIIDM-11" target="5b584qVkZsWunDgtIIDM-13">
          <mxGeometry relative="1" as="geometry" />
        </mxCell>
        <mxCell id="5b584qVkZsWunDgtIIDM-11" value="multi-dags-stg" style="rounded=0;whiteSpace=wrap;html=1;" vertex="1" parent="1">
          <mxGeometry x="150" y="70" width="120" height="60" as="geometry" />
        </mxCell>
        <mxCell id="5b584qVkZsWunDgtIIDM-12" style="edgeStyle=orthogonalEdgeStyle;rounded=0;orthogonalLoop=1;jettySize=auto;html=1;entryX=0;entryY=0.5;entryDx=0;entryDy=0;" edge="1" parent="1" source="5b584qVkZsWunDgtIIDM-13" target="5b584qVkZsWunDgtIIDM-15">
          <mxGeometry relative="1" as="geometry" />
        </mxCell>
        <mxCell id="5b584qVkZsWunDgtIIDM-13" value="multi-dags-rdv" style="rounded=0;whiteSpace=wrap;html=1;" vertex="1" parent="1">
          <mxGeometry x="310" y="70" width="120" height="60" as="geometry" />
        </mxCell>
        <mxCell id="5b584qVkZsWunDgtIIDM-15" value="multi-dags-cdv" style="rounded=0;whiteSpace=wrap;html=1;" vertex="1" parent="1">
          <mxGeometry x="474" y="70" width="120" height="60" as="geometry" />
        </mxCell>
        <mxCell id="5b584qVkZsWunDgtIIDM-17" style="edgeStyle=orthogonalEdgeStyle;rounded=0;orthogonalLoop=1;jettySize=auto;html=1;" edge="1" parent="1" source="5b584qVkZsWunDgtIIDM-18" target="5b584qVkZsWunDgtIIDM-20">
          <mxGeometry relative="1" as="geometry" />
        </mxCell>
        <mxCell id="5b584qVkZsWunDgtIIDM-18" value="af-dags-stg" style="rounded=0;whiteSpace=wrap;html=1;" vertex="1" parent="1">
          <mxGeometry x="1203" y="160" width="120" height="60" as="geometry" />
        </mxCell>
        <mxCell id="5b584qVkZsWunDgtIIDM-19" style="edgeStyle=orthogonalEdgeStyle;rounded=0;orthogonalLoop=1;jettySize=auto;html=1;entryX=0;entryY=0.5;entryDx=0;entryDy=0;" edge="1" parent="1" source="5b584qVkZsWunDgtIIDM-20" target="5b584qVkZsWunDgtIIDM-22">
          <mxGeometry relative="1" as="geometry" />
        </mxCell>
        <mxCell id="5b584qVkZsWunDgtIIDM-20" value="af-dags-rdv" style="rounded=0;whiteSpace=wrap;html=1;" vertex="1" parent="1">
          <mxGeometry x="1363" y="160" width="120" height="60" as="geometry" />
        </mxCell>
        <mxCell id="5b584qVkZsWunDgtIIDM-21" value="" style="edgeStyle=orthogonalEdgeStyle;rounded=0;orthogonalLoop=1;jettySize=auto;html=1;" edge="1" parent="1" source="5b584qVkZsWunDgtIIDM-22" target="5b584qVkZsWunDgtIIDM-23">
          <mxGeometry relative="1" as="geometry" />
        </mxCell>
        <mxCell id="5b584qVkZsWunDgtIIDM-22" value="af-dags-cdv" style="rounded=0;whiteSpace=wrap;html=1;" vertex="1" parent="1">
          <mxGeometry x="1527" y="160" width="120" height="60" as="geometry" />
        </mxCell>
        <mxCell id="5b584qVkZsWunDgtIIDM-97" value="" style="edgeStyle=orthogonalEdgeStyle;rounded=0;orthogonalLoop=1;jettySize=auto;html=1;" edge="1" parent="1" source="5b584qVkZsWunDgtIIDM-23" target="5b584qVkZsWunDgtIIDM-90">
          <mxGeometry relative="1" as="geometry" />
        </mxCell>
        <mxCell id="5b584qVkZsWunDgtIIDM-23" value="af-dags-bdv" style="rounded=0;whiteSpace=wrap;html=1;" vertex="1" parent="1">
          <mxGeometry x="1693" y="160" width="120" height="60" as="geometry" />
        </mxCell>
        <mxCell id="5b584qVkZsWunDgtIIDM-24" style="edgeStyle=orthogonalEdgeStyle;rounded=0;orthogonalLoop=1;jettySize=auto;html=1;" edge="1" parent="1" source="5b584qVkZsWunDgtIIDM-25" target="5b584qVkZsWunDgtIIDM-27">
          <mxGeometry relative="1" as="geometry" />
        </mxCell>
        <mxCell id="5b584qVkZsWunDgtIIDM-25" value="mg-dags-stg" style="rounded=0;whiteSpace=wrap;html=1;" vertex="1" parent="1">
          <mxGeometry x="163" y="390" width="120" height="60" as="geometry" />
        </mxCell>
        <mxCell id="5b584qVkZsWunDgtIIDM-26" style="edgeStyle=orthogonalEdgeStyle;rounded=0;orthogonalLoop=1;jettySize=auto;html=1;entryX=0;entryY=0.5;entryDx=0;entryDy=0;" edge="1" parent="1" source="5b584qVkZsWunDgtIIDM-27" target="5b584qVkZsWunDgtIIDM-29">
          <mxGeometry relative="1" as="geometry" />
        </mxCell>
        <mxCell id="5b584qVkZsWunDgtIIDM-27" value="mg-dags-rdv" style="rounded=0;whiteSpace=wrap;html=1;" vertex="1" parent="1">
          <mxGeometry x="323" y="390" width="120" height="60" as="geometry" />
        </mxCell>
        <mxCell id="5b584qVkZsWunDgtIIDM-28" value="" style="edgeStyle=orthogonalEdgeStyle;rounded=0;orthogonalLoop=1;jettySize=auto;html=1;" edge="1" parent="1" source="5b584qVkZsWunDgtIIDM-29" target="5b584qVkZsWunDgtIIDM-30">
          <mxGeometry relative="1" as="geometry" />
        </mxCell>
        <mxCell id="5b584qVkZsWunDgtIIDM-29" value="mg-dags-cdv" style="rounded=0;whiteSpace=wrap;html=1;" vertex="1" parent="1">
          <mxGeometry x="487" y="390" width="120" height="60" as="geometry" />
        </mxCell>
        <mxCell id="5b584qVkZsWunDgtIIDM-99" value="" style="edgeStyle=orthogonalEdgeStyle;rounded=0;orthogonalLoop=1;jettySize=auto;html=1;" edge="1" parent="1" source="5b584qVkZsWunDgtIIDM-30" target="5b584qVkZsWunDgtIIDM-91">
          <mxGeometry relative="1" as="geometry" />
        </mxCell>
        <mxCell id="5b584qVkZsWunDgtIIDM-30" value="mg-dags-bdv" style="rounded=0;whiteSpace=wrap;html=1;" vertex="1" parent="1">
          <mxGeometry x="653" y="390" width="120" height="60" as="geometry" />
        </mxCell>
        <mxCell id="5b584qVkZsWunDgtIIDM-31" style="edgeStyle=orthogonalEdgeStyle;rounded=0;orthogonalLoop=1;jettySize=auto;html=1;" edge="1" parent="1" source="5b584qVkZsWunDgtIIDM-32" target="5b584qVkZsWunDgtIIDM-34">
          <mxGeometry relative="1" as="geometry" />
        </mxCell>
        <mxCell id="5b584qVkZsWunDgtIIDM-32" value="ipf-dags-stg" style="rounded=0;whiteSpace=wrap;html=1;" vertex="1" parent="1">
          <mxGeometry x="1203" y="390" width="120" height="60" as="geometry" />
        </mxCell>
        <mxCell id="5b584qVkZsWunDgtIIDM-33" style="edgeStyle=orthogonalEdgeStyle;rounded=0;orthogonalLoop=1;jettySize=auto;html=1;entryX=0;entryY=0.5;entryDx=0;entryDy=0;" edge="1" parent="1" source="5b584qVkZsWunDgtIIDM-34" target="5b584qVkZsWunDgtIIDM-36">
          <mxGeometry relative="1" as="geometry" />
        </mxCell>
        <mxCell id="5b584qVkZsWunDgtIIDM-34" value="ipf-dags-rdv" style="rounded=0;whiteSpace=wrap;html=1;" vertex="1" parent="1">
          <mxGeometry x="1363" y="390" width="120" height="60" as="geometry" />
        </mxCell>
        <mxCell id="5b584qVkZsWunDgtIIDM-35" value="" style="edgeStyle=orthogonalEdgeStyle;rounded=0;orthogonalLoop=1;jettySize=auto;html=1;" edge="1" parent="1" source="5b584qVkZsWunDgtIIDM-36" target="5b584qVkZsWunDgtIIDM-37">
          <mxGeometry relative="1" as="geometry" />
        </mxCell>
        <mxCell id="5b584qVkZsWunDgtIIDM-36" value="ipf-dags-cdv" style="rounded=0;whiteSpace=wrap;html=1;" vertex="1" parent="1">
          <mxGeometry x="1527" y="390" width="120" height="60" as="geometry" />
        </mxCell>
        <mxCell id="5b584qVkZsWunDgtIIDM-100" value="" style="edgeStyle=orthogonalEdgeStyle;rounded=0;orthogonalLoop=1;jettySize=auto;html=1;" edge="1" parent="1" source="5b584qVkZsWunDgtIIDM-37" target="5b584qVkZsWunDgtIIDM-92">
          <mxGeometry relative="1" as="geometry" />
        </mxCell>
        <mxCell id="5b584qVkZsWunDgtIIDM-37" value="ipf-dags-bdv" style="rounded=0;whiteSpace=wrap;html=1;" vertex="1" parent="1">
          <mxGeometry x="1683" y="390" width="120" height="60" as="geometry" />
        </mxCell>
        <mxCell id="5b584qVkZsWunDgtIIDM-39" value="" style="edgeStyle=orthogonalEdgeStyle;rounded=0;orthogonalLoop=1;jettySize=auto;html=1;" edge="1" parent="1" source="5b584qVkZsWunDgtIIDM-38" target="5b584qVkZsWunDgtIIDM-11">
          <mxGeometry relative="1" as="geometry" />
        </mxCell>
        <mxCell id="5b584qVkZsWunDgtIIDM-38" value="inicio" style="strokeWidth=2;html=1;shape=mxgraph.flowchart.start_2;whiteSpace=wrap;" vertex="1" parent="1">
          <mxGeometry x="30" y="80" width="40" height="40" as="geometry" />
        </mxCell>
        <mxCell id="5b584qVkZsWunDgtIIDM-41" value="" style="edgeStyle=orthogonalEdgeStyle;rounded=0;orthogonalLoop=1;jettySize=auto;html=1;" edge="1" parent="1" source="5b584qVkZsWunDgtIIDM-40" target="5b584qVkZsWunDgtIIDM-1">
          <mxGeometry relative="1" as="geometry" />
        </mxCell>
        <mxCell id="5b584qVkZsWunDgtIIDM-40" value="inicio" style="strokeWidth=2;html=1;shape=mxgraph.flowchart.start_2;whiteSpace=wrap;" vertex="1" parent="1">
          <mxGeometry x="30" y="170" width="40" height="40" as="geometry" />
        </mxCell>
        <mxCell id="5b584qVkZsWunDgtIIDM-43" value="" style="edgeStyle=orthogonalEdgeStyle;rounded=0;orthogonalLoop=1;jettySize=auto;html=1;" edge="1" parent="1" source="5b584qVkZsWunDgtIIDM-42" target="5b584qVkZsWunDgtIIDM-18">
          <mxGeometry relative="1" as="geometry" />
        </mxCell>
        <mxCell id="5b584qVkZsWunDgtIIDM-42" value="inicio" style="strokeWidth=2;html=1;shape=mxgraph.flowchart.start_2;whiteSpace=wrap;" vertex="1" parent="1">
          <mxGeometry x="1083" y="170" width="40" height="40" as="geometry" />
        </mxCell>
        <mxCell id="5b584qVkZsWunDgtIIDM-45" value="" style="edgeStyle=orthogonalEdgeStyle;rounded=0;orthogonalLoop=1;jettySize=auto;html=1;" edge="1" parent="1" source="5b584qVkZsWunDgtIIDM-44" target="5b584qVkZsWunDgtIIDM-25">
          <mxGeometry relative="1" as="geometry" />
        </mxCell>
        <mxCell id="5b584qVkZsWunDgtIIDM-44" value="inicio" style="strokeWidth=2;html=1;shape=mxgraph.flowchart.start_2;whiteSpace=wrap;" vertex="1" parent="1">
          <mxGeometry x="43" y="400" width="40" height="40" as="geometry" />
        </mxCell>
        <mxCell id="5b584qVkZsWunDgtIIDM-47" value="" style="edgeStyle=orthogonalEdgeStyle;rounded=0;orthogonalLoop=1;jettySize=auto;html=1;" edge="1" parent="1" source="5b584qVkZsWunDgtIIDM-46" target="5b584qVkZsWunDgtIIDM-32">
          <mxGeometry relative="1" as="geometry" />
        </mxCell>
        <mxCell id="5b584qVkZsWunDgtIIDM-46" value="inicio" style="strokeWidth=2;html=1;shape=mxgraph.flowchart.start_2;whiteSpace=wrap;" vertex="1" parent="1">
          <mxGeometry x="1083" y="400" width="40" height="40" as="geometry" />
        </mxCell>
        <mxCell id="5b584qVkZsWunDgtIIDM-48" style="edgeStyle=orthogonalEdgeStyle;rounded=0;orthogonalLoop=1;jettySize=auto;html=1;" edge="1" parent="1" source="5b584qVkZsWunDgtIIDM-49" target="5b584qVkZsWunDgtIIDM-51">
          <mxGeometry relative="1" as="geometry" />
        </mxCell>
        <mxCell id="5b584qVkZsWunDgtIIDM-49" value="capex-dags-stg" style="rounded=0;whiteSpace=wrap;html=1;" vertex="1" parent="1">
          <mxGeometry x="142" y="610" width="120" height="60" as="geometry" />
        </mxCell>
        <mxCell id="5b584qVkZsWunDgtIIDM-50" style="edgeStyle=orthogonalEdgeStyle;rounded=0;orthogonalLoop=1;jettySize=auto;html=1;entryX=0;entryY=0.5;entryDx=0;entryDy=0;" edge="1" parent="1" source="5b584qVkZsWunDgtIIDM-51" target="5b584qVkZsWunDgtIIDM-53">
          <mxGeometry relative="1" as="geometry" />
        </mxCell>
        <mxCell id="5b584qVkZsWunDgtIIDM-51" value="capex-dags-rdv" style="rounded=0;whiteSpace=wrap;html=1;" vertex="1" parent="1">
          <mxGeometry x="320" y="610" width="120" height="60" as="geometry" />
        </mxCell>
        <mxCell id="5b584qVkZsWunDgtIIDM-52" value="" style="edgeStyle=orthogonalEdgeStyle;rounded=0;orthogonalLoop=1;jettySize=auto;html=1;" edge="1" parent="1" source="5b584qVkZsWunDgtIIDM-53" target="5b584qVkZsWunDgtIIDM-54">
          <mxGeometry relative="1" as="geometry" />
        </mxCell>
        <mxCell id="5b584qVkZsWunDgtIIDM-53" value="capex-dags-cdv" style="rounded=0;whiteSpace=wrap;html=1;" vertex="1" parent="1">
          <mxGeometry x="484" y="610" width="120" height="60" as="geometry" />
        </mxCell>
        <mxCell id="5b584qVkZsWunDgtIIDM-101" value="" style="edgeStyle=orthogonalEdgeStyle;rounded=0;orthogonalLoop=1;jettySize=auto;html=1;" edge="1" parent="1" source="5b584qVkZsWunDgtIIDM-54" target="5b584qVkZsWunDgtIIDM-93">
          <mxGeometry relative="1" as="geometry" />
        </mxCell>
        <mxCell id="5b584qVkZsWunDgtIIDM-54" value="capex-dags-bdv" style="rounded=0;whiteSpace=wrap;html=1;" vertex="1" parent="1">
          <mxGeometry x="630" y="610" width="120" height="60" as="geometry" />
        </mxCell>
        <mxCell id="5b584qVkZsWunDgtIIDM-55" value="" style="edgeStyle=orthogonalEdgeStyle;rounded=0;orthogonalLoop=1;jettySize=auto;html=1;" edge="1" parent="1" source="5b584qVkZsWunDgtIIDM-56" target="5b584qVkZsWunDgtIIDM-49">
          <mxGeometry relative="1" as="geometry" />
        </mxCell>
        <mxCell id="5b584qVkZsWunDgtIIDM-56" value="inicio" style="strokeWidth=2;html=1;shape=mxgraph.flowchart.start_2;whiteSpace=wrap;" vertex="1" parent="1">
          <mxGeometry x="40" y="620" width="40" height="40" as="geometry" />
        </mxCell>
        <mxCell id="5b584qVkZsWunDgtIIDM-57" style="edgeStyle=orthogonalEdgeStyle;rounded=0;orthogonalLoop=1;jettySize=auto;html=1;" edge="1" parent="1" source="5b584qVkZsWunDgtIIDM-58" target="5b584qVkZsWunDgtIIDM-60">
          <mxGeometry relative="1" as="geometry" />
        </mxCell>
        <mxCell id="5b584qVkZsWunDgtIIDM-58" value="pcd-dags-stg" style="rounded=0;whiteSpace=wrap;html=1;" vertex="1" parent="1">
          <mxGeometry x="1209" y="610" width="120" height="60" as="geometry" />
        </mxCell>
        <mxCell id="5b584qVkZsWunDgtIIDM-59" style="edgeStyle=orthogonalEdgeStyle;rounded=0;orthogonalLoop=1;jettySize=auto;html=1;entryX=0;entryY=0.5;entryDx=0;entryDy=0;" edge="1" parent="1" source="5b584qVkZsWunDgtIIDM-60" target="5b584qVkZsWunDgtIIDM-62">
          <mxGeometry relative="1" as="geometry" />
        </mxCell>
        <mxCell id="5b584qVkZsWunDgtIIDM-60" value="pcd-dags-rdv" style="rounded=0;whiteSpace=wrap;html=1;" vertex="1" parent="1">
          <mxGeometry x="1369" y="610" width="120" height="60" as="geometry" />
        </mxCell>
        <mxCell id="5b584qVkZsWunDgtIIDM-61" value="" style="edgeStyle=orthogonalEdgeStyle;rounded=0;orthogonalLoop=1;jettySize=auto;html=1;" edge="1" parent="1" source="5b584qVkZsWunDgtIIDM-62" target="5b584qVkZsWunDgtIIDM-63">
          <mxGeometry relative="1" as="geometry" />
        </mxCell>
        <mxCell id="5b584qVkZsWunDgtIIDM-62" value="pcd-dags-cdv" style="rounded=0;whiteSpace=wrap;html=1;" vertex="1" parent="1">
          <mxGeometry x="1533" y="610" width="120" height="60" as="geometry" />
        </mxCell>
        <mxCell id="5b584qVkZsWunDgtIIDM-102" value="" style="edgeStyle=orthogonalEdgeStyle;rounded=0;orthogonalLoop=1;jettySize=auto;html=1;" edge="1" parent="1" source="5b584qVkZsWunDgtIIDM-63" target="5b584qVkZsWunDgtIIDM-94">
          <mxGeometry relative="1" as="geometry" />
        </mxCell>
        <mxCell id="5b584qVkZsWunDgtIIDM-63" value="pcd-dags-bdv" style="rounded=0;whiteSpace=wrap;html=1;" vertex="1" parent="1">
          <mxGeometry x="1699" y="610" width="120" height="60" as="geometry" />
        </mxCell>
        <mxCell id="5b584qVkZsWunDgtIIDM-64" value="" style="edgeStyle=orthogonalEdgeStyle;rounded=0;orthogonalLoop=1;jettySize=auto;html=1;" edge="1" parent="1" source="5b584qVkZsWunDgtIIDM-65" target="5b584qVkZsWunDgtIIDM-58">
          <mxGeometry relative="1" as="geometry" />
        </mxCell>
        <mxCell id="5b584qVkZsWunDgtIIDM-65" value="inicio" style="strokeWidth=2;html=1;shape=mxgraph.flowchart.start_2;whiteSpace=wrap;" vertex="1" parent="1">
          <mxGeometry x="1089" y="620" width="40" height="40" as="geometry" />
        </mxCell>
        <mxCell id="5b584qVkZsWunDgtIIDM-66" style="edgeStyle=orthogonalEdgeStyle;rounded=0;orthogonalLoop=1;jettySize=auto;html=1;" edge="1" parent="1" source="5b584qVkZsWunDgtIIDM-67" target="5b584qVkZsWunDgtIIDM-69">
          <mxGeometry relative="1" as="geometry" />
        </mxCell>
        <mxCell id="5b584qVkZsWunDgtIIDM-67" value="cuenta12-dags-stg" style="rounded=0;whiteSpace=wrap;html=1;" vertex="1" parent="1">
          <mxGeometry x="170" y="850" width="120" height="60" as="geometry" />
        </mxCell>
        <mxCell id="5b584qVkZsWunDgtIIDM-68" style="edgeStyle=orthogonalEdgeStyle;rounded=0;orthogonalLoop=1;jettySize=auto;html=1;entryX=0;entryY=0.5;entryDx=0;entryDy=0;" edge="1" parent="1" source="5b584qVkZsWunDgtIIDM-69" target="5b584qVkZsWunDgtIIDM-71">
          <mxGeometry relative="1" as="geometry" />
        </mxCell>
        <mxCell id="5b584qVkZsWunDgtIIDM-69" value="cuenta12-dags-rdv" style="rounded=0;whiteSpace=wrap;html=1;" vertex="1" parent="1">
          <mxGeometry x="330" y="850" width="120" height="60" as="geometry" />
        </mxCell>
        <mxCell id="5b584qVkZsWunDgtIIDM-70" value="" style="edgeStyle=orthogonalEdgeStyle;rounded=0;orthogonalLoop=1;jettySize=auto;html=1;" edge="1" parent="1" source="5b584qVkZsWunDgtIIDM-71" target="5b584qVkZsWunDgtIIDM-72">
          <mxGeometry relative="1" as="geometry" />
        </mxCell>
        <mxCell id="5b584qVkZsWunDgtIIDM-71" value="cuenta12-dags-cdv" style="rounded=0;whiteSpace=wrap;html=1;" vertex="1" parent="1">
          <mxGeometry x="494" y="850" width="120" height="60" as="geometry" />
        </mxCell>
        <mxCell id="5b584qVkZsWunDgtIIDM-103" value="" style="edgeStyle=orthogonalEdgeStyle;rounded=0;orthogonalLoop=1;jettySize=auto;html=1;" edge="1" parent="1" source="5b584qVkZsWunDgtIIDM-72" target="5b584qVkZsWunDgtIIDM-95">
          <mxGeometry relative="1" as="geometry" />
        </mxCell>
        <mxCell id="5b584qVkZsWunDgtIIDM-72" value="cuenta12-dags-bdv" style="rounded=0;whiteSpace=wrap;html=1;" vertex="1" parent="1">
          <mxGeometry x="660" y="850" width="120" height="60" as="geometry" />
        </mxCell>
        <mxCell id="5b584qVkZsWunDgtIIDM-73" value="" style="edgeStyle=orthogonalEdgeStyle;rounded=0;orthogonalLoop=1;jettySize=auto;html=1;" edge="1" parent="1" source="5b584qVkZsWunDgtIIDM-74" target="5b584qVkZsWunDgtIIDM-67">
          <mxGeometry relative="1" as="geometry" />
        </mxCell>
        <mxCell id="5b584qVkZsWunDgtIIDM-74" value="inicio" style="strokeWidth=2;html=1;shape=mxgraph.flowchart.start_2;whiteSpace=wrap;" vertex="1" parent="1">
          <mxGeometry x="40" y="860" width="40" height="40" as="geometry" />
        </mxCell>
        <mxCell id="5b584qVkZsWunDgtIIDM-86" value="" style="edgeStyle=orthogonalEdgeStyle;rounded=0;orthogonalLoop=1;jettySize=auto;html=1;" edge="1" parent="1" source="5b584qVkZsWunDgtIIDM-76" target="5b584qVkZsWunDgtIIDM-84">
          <mxGeometry relative="1" as="geometry" />
        </mxCell>
        <mxCell id="5b584qVkZsWunDgtIIDM-76" value="sustento-multi-ctrl" style="rounded=0;whiteSpace=wrap;html=1;" vertex="1" parent="1">
          <mxGeometry x="777" y="70" width="120" height="60" as="geometry" />
        </mxCell>
        <mxCell id="5b584qVkZsWunDgtIIDM-82" value="" style="edgeStyle=orthogonalEdgeStyle;rounded=0;orthogonalLoop=1;jettySize=auto;html=1;" edge="1" parent="1" source="5b584qVkZsWunDgtIIDM-83" target="5b584qVkZsWunDgtIIDM-76">
          <mxGeometry relative="1" as="geometry" />
        </mxCell>
        <mxCell id="5b584qVkZsWunDgtIIDM-83" value="inicio" style="strokeWidth=2;html=1;shape=mxgraph.flowchart.start_2;whiteSpace=wrap;" vertex="1" parent="1">
          <mxGeometry x="647" y="80" width="40" height="40" as="geometry" />
        </mxCell>
        <mxCell id="5b584qVkZsWunDgtIIDM-158" value="" style="edgeStyle=orthogonalEdgeStyle;rounded=0;orthogonalLoop=1;jettySize=auto;html=1;" edge="1" parent="1" source="5b584qVkZsWunDgtIIDM-84" target="5b584qVkZsWunDgtIIDM-157">
          <mxGeometry relative="1" as="geometry" />
        </mxCell>
        <mxCell id="5b584qVkZsWunDgtIIDM-84" value="sustento-multi-intermedia" style="rounded=0;whiteSpace=wrap;html=1;" vertex="1" parent="1">
          <mxGeometry x="933" y="70" width="120" height="60" as="geometry" />
        </mxCell>
        <mxCell id="5b584qVkZsWunDgtIIDM-88" value="regionalizacion" style="rounded=0;whiteSpace=wrap;html=1;" vertex="1" parent="1">
          <mxGeometry x="920" y="160" width="120" height="60" as="geometry" />
        </mxCell>
        <mxCell id="5b584qVkZsWunDgtIIDM-163" value="" style="edgeStyle=orthogonalEdgeStyle;rounded=0;orthogonalLoop=1;jettySize=auto;html=1;" edge="1" parent="1" source="5b584qVkZsWunDgtIIDM-89" target="5b584qVkZsWunDgtIIDM-88">
          <mxGeometry relative="1" as="geometry" />
        </mxCell>
        <mxCell id="5b584qVkZsWunDgtIIDM-89" value="int optimizacion" style="rounded=0;whiteSpace=wrap;html=1;" vertex="1" parent="1">
          <mxGeometry x="790" y="160" width="100" height="60" as="geometry" />
        </mxCell>
        <mxCell id="5b584qVkZsWunDgtIIDM-164" value="" style="edgeStyle=orthogonalEdgeStyle;rounded=0;orthogonalLoop=1;jettySize=auto;html=1;" edge="1" parent="1" source="5b584qVkZsWunDgtIIDM-90" target="5b584qVkZsWunDgtIIDM-162">
          <mxGeometry relative="1" as="geometry" />
        </mxCell>
        <mxCell id="5b584qVkZsWunDgtIIDM-90" value="af optimizacion" style="rounded=0;whiteSpace=wrap;html=1;" vertex="1" parent="1">
          <mxGeometry x="1833" y="160" width="100" height="60" as="geometry" />
        </mxCell>
        <mxCell id="5b584qVkZsWunDgtIIDM-170" value="" style="edgeStyle=orthogonalEdgeStyle;rounded=0;orthogonalLoop=1;jettySize=auto;html=1;" edge="1" parent="1" source="5b584qVkZsWunDgtIIDM-91" target="5b584qVkZsWunDgtIIDM-169">
          <mxGeometry relative="1" as="geometry" />
        </mxCell>
        <mxCell id="5b584qVkZsWunDgtIIDM-91" value="mg optimizacion" style="rounded=0;whiteSpace=wrap;html=1;" vertex="1" parent="1">
          <mxGeometry x="803" y="390" width="100" height="60" as="geometry" />
        </mxCell>
        <mxCell id="5b584qVkZsWunDgtIIDM-173" value="" style="edgeStyle=orthogonalEdgeStyle;rounded=0;orthogonalLoop=1;jettySize=auto;html=1;" edge="1" parent="1" source="5b584qVkZsWunDgtIIDM-92" target="5b584qVkZsWunDgtIIDM-172">
          <mxGeometry relative="1" as="geometry" />
        </mxCell>
        <mxCell id="5b584qVkZsWunDgtIIDM-92" value="ipf optimizacion" style="rounded=0;whiteSpace=wrap;html=1;" vertex="1" parent="1">
          <mxGeometry x="1833" y="390" width="100" height="60" as="geometry" />
        </mxCell>
        <mxCell id="5b584qVkZsWunDgtIIDM-178" value="" style="edgeStyle=orthogonalEdgeStyle;rounded=0;orthogonalLoop=1;jettySize=auto;html=1;" edge="1" parent="1" source="5b584qVkZsWunDgtIIDM-93" target="5b584qVkZsWunDgtIIDM-177">
          <mxGeometry relative="1" as="geometry" />
        </mxCell>
        <mxCell id="5b584qVkZsWunDgtIIDM-93" value="capex optimizacion" style="rounded=0;whiteSpace=wrap;html=1;" vertex="1" parent="1">
          <mxGeometry x="790" y="610" width="100" height="60" as="geometry" />
        </mxCell>
        <mxCell id="5b584qVkZsWunDgtIIDM-183" value="" style="edgeStyle=orthogonalEdgeStyle;rounded=0;orthogonalLoop=1;jettySize=auto;html=1;" edge="1" parent="1" source="5b584qVkZsWunDgtIIDM-94" target="5b584qVkZsWunDgtIIDM-182">
          <mxGeometry relative="1" as="geometry" />
        </mxCell>
        <mxCell id="5b584qVkZsWunDgtIIDM-94" value="pcd optimizacion" style="rounded=0;whiteSpace=wrap;html=1;" vertex="1" parent="1">
          <mxGeometry x="1839" y="610" width="100" height="60" as="geometry" />
        </mxCell>
        <mxCell id="5b584qVkZsWunDgtIIDM-187" value="" style="edgeStyle=orthogonalEdgeStyle;rounded=0;orthogonalLoop=1;jettySize=auto;html=1;" edge="1" parent="1" source="5b584qVkZsWunDgtIIDM-95" target="5b584qVkZsWunDgtIIDM-186">
          <mxGeometry relative="1" as="geometry" />
        </mxCell>
        <mxCell id="5b584qVkZsWunDgtIIDM-95" value="cuenta12 optimizacion" style="rounded=0;whiteSpace=wrap;html=1;" vertex="1" parent="1">
          <mxGeometry x="810" y="850" width="100" height="60" as="geometry" />
        </mxCell>
        <mxCell id="5b584qVkZsWunDgtIIDM-111" value="" style="edgeStyle=orthogonalEdgeStyle;rounded=0;orthogonalLoop=1;jettySize=auto;html=1;" edge="1" parent="1" source="5b584qVkZsWunDgtIIDM-112" target="5b584qVkZsWunDgtIIDM-115">
          <mxGeometry relative="1" as="geometry" />
        </mxCell>
        <mxCell id="5b584qVkZsWunDgtIIDM-112" value="sust-int-ctrl" style="rounded=0;whiteSpace=wrap;html=1;" vertex="1" parent="1">
          <mxGeometry x="146" y="260" width="120" height="60" as="geometry" />
        </mxCell>
        <mxCell id="5b584qVkZsWunDgtIIDM-113" value="" style="edgeStyle=orthogonalEdgeStyle;rounded=0;orthogonalLoop=1;jettySize=auto;html=1;" edge="1" parent="1" source="5b584qVkZsWunDgtIIDM-114" target="5b584qVkZsWunDgtIIDM-112">
          <mxGeometry relative="1" as="geometry" />
        </mxCell>
        <mxCell id="5b584qVkZsWunDgtIIDM-114" value="inicio" style="strokeWidth=2;html=1;shape=mxgraph.flowchart.start_2;whiteSpace=wrap;" vertex="1" parent="1">
          <mxGeometry x="40" y="270" width="40" height="40" as="geometry" />
        </mxCell>
        <mxCell id="5b584qVkZsWunDgtIIDM-155" value="" style="edgeStyle=orthogonalEdgeStyle;rounded=0;orthogonalLoop=1;jettySize=auto;html=1;" edge="1" parent="1" source="5b584qVkZsWunDgtIIDM-115" target="5b584qVkZsWunDgtIIDM-154">
          <mxGeometry relative="1" as="geometry" />
        </mxCell>
        <mxCell id="5b584qVkZsWunDgtIIDM-115" value="sust-int-intermedia" style="rounded=0;whiteSpace=wrap;html=1;" vertex="1" parent="1">
          <mxGeometry x="316" y="260" width="120" height="60" as="geometry" />
        </mxCell>
        <mxCell id="5b584qVkZsWunDgtIIDM-121" value="" style="edgeStyle=orthogonalEdgeStyle;rounded=0;orthogonalLoop=1;jettySize=auto;html=1;" edge="1" parent="1" source="5b584qVkZsWunDgtIIDM-122" target="5b584qVkZsWunDgtIIDM-125">
          <mxGeometry relative="1" as="geometry" />
        </mxCell>
        <mxCell id="5b584qVkZsWunDgtIIDM-122" value="sust-af-ctrl" style="rounded=0;whiteSpace=wrap;html=1;" vertex="1" parent="1">
          <mxGeometry x="1196" y="250" width="120" height="60" as="geometry" />
        </mxCell>
        <mxCell id="5b584qVkZsWunDgtIIDM-123" value="" style="edgeStyle=orthogonalEdgeStyle;rounded=0;orthogonalLoop=1;jettySize=auto;html=1;" edge="1" parent="1" source="5b584qVkZsWunDgtIIDM-124" target="5b584qVkZsWunDgtIIDM-122">
          <mxGeometry relative="1" as="geometry" />
        </mxCell>
        <mxCell id="5b584qVkZsWunDgtIIDM-124" value="inicio" style="strokeWidth=2;html=1;shape=mxgraph.flowchart.start_2;whiteSpace=wrap;" vertex="1" parent="1">
          <mxGeometry x="1080" y="260" width="40" height="40" as="geometry" />
        </mxCell>
        <mxCell id="5b584qVkZsWunDgtIIDM-160" value="" style="edgeStyle=orthogonalEdgeStyle;rounded=0;orthogonalLoop=1;jettySize=auto;html=1;" edge="1" parent="1" source="5b584qVkZsWunDgtIIDM-125" target="5b584qVkZsWunDgtIIDM-159">
          <mxGeometry relative="1" as="geometry" />
        </mxCell>
        <mxCell id="5b584qVkZsWunDgtIIDM-125" value="sust-af-intermedia" style="rounded=0;whiteSpace=wrap;html=1;" vertex="1" parent="1">
          <mxGeometry x="1366" y="250" width="120" height="60" as="geometry" />
        </mxCell>
        <mxCell id="5b584qVkZsWunDgtIIDM-128" value="" style="edgeStyle=orthogonalEdgeStyle;rounded=0;orthogonalLoop=1;jettySize=auto;html=1;" edge="1" parent="1" source="5b584qVkZsWunDgtIIDM-129" target="5b584qVkZsWunDgtIIDM-132">
          <mxGeometry relative="1" as="geometry" />
        </mxCell>
        <mxCell id="5b584qVkZsWunDgtIIDM-129" value="sust-ipf-ctrl" style="rounded=0;whiteSpace=wrap;html=1;" vertex="1" parent="1">
          <mxGeometry x="1185" y="480" width="120" height="60" as="geometry" />
        </mxCell>
        <mxCell id="5b584qVkZsWunDgtIIDM-130" value="" style="edgeStyle=orthogonalEdgeStyle;rounded=0;orthogonalLoop=1;jettySize=auto;html=1;" edge="1" parent="1" source="5b584qVkZsWunDgtIIDM-131" target="5b584qVkZsWunDgtIIDM-129">
          <mxGeometry relative="1" as="geometry" />
        </mxCell>
        <mxCell id="5b584qVkZsWunDgtIIDM-131" value="inicio" style="strokeWidth=2;html=1;shape=mxgraph.flowchart.start_2;whiteSpace=wrap;" vertex="1" parent="1">
          <mxGeometry x="1089" y="490" width="40" height="40" as="geometry" />
        </mxCell>
        <mxCell id="5b584qVkZsWunDgtIIDM-165" value="" style="edgeStyle=orthogonalEdgeStyle;rounded=0;orthogonalLoop=1;jettySize=auto;html=1;" edge="1" parent="1" source="5b584qVkZsWunDgtIIDM-132" target="5b584qVkZsWunDgtIIDM-153">
          <mxGeometry relative="1" as="geometry" />
        </mxCell>
        <mxCell id="5b584qVkZsWunDgtIIDM-132" value="sust-ipf-intermedia" style="rounded=0;whiteSpace=wrap;html=1;" vertex="1" parent="1">
          <mxGeometry x="1369" y="480" width="120" height="60" as="geometry" />
        </mxCell>
        <mxCell id="5b584qVkZsWunDgtIIDM-133" value="" style="edgeStyle=orthogonalEdgeStyle;rounded=0;orthogonalLoop=1;jettySize=auto;html=1;" edge="1" parent="1" source="5b584qVkZsWunDgtIIDM-134" target="5b584qVkZsWunDgtIIDM-137">
          <mxGeometry relative="1" as="geometry" />
        </mxCell>
        <mxCell id="5b584qVkZsWunDgtIIDM-134" value="sust-mg-ctrl" style="rounded=0;whiteSpace=wrap;html=1;" vertex="1" parent="1">
          <mxGeometry x="159" y="475" width="120" height="60" as="geometry" />
        </mxCell>
        <mxCell id="5b584qVkZsWunDgtIIDM-135" value="" style="edgeStyle=orthogonalEdgeStyle;rounded=0;orthogonalLoop=1;jettySize=auto;html=1;" edge="1" parent="1" source="5b584qVkZsWunDgtIIDM-136" target="5b584qVkZsWunDgtIIDM-134">
          <mxGeometry relative="1" as="geometry" />
        </mxCell>
        <mxCell id="5b584qVkZsWunDgtIIDM-136" value="inicio" style="strokeWidth=2;html=1;shape=mxgraph.flowchart.start_2;whiteSpace=wrap;" vertex="1" parent="1">
          <mxGeometry x="43" y="485" width="40" height="40" as="geometry" />
        </mxCell>
        <mxCell id="5b584qVkZsWunDgtIIDM-167" value="" style="edgeStyle=orthogonalEdgeStyle;rounded=0;orthogonalLoop=1;jettySize=auto;html=1;" edge="1" parent="1" source="5b584qVkZsWunDgtIIDM-137" target="5b584qVkZsWunDgtIIDM-166">
          <mxGeometry relative="1" as="geometry" />
        </mxCell>
        <mxCell id="5b584qVkZsWunDgtIIDM-137" value="sust-mg-intermedia" style="rounded=0;whiteSpace=wrap;html=1;" vertex="1" parent="1">
          <mxGeometry x="329" y="475" width="120" height="60" as="geometry" />
        </mxCell>
        <mxCell id="5b584qVkZsWunDgtIIDM-138" value="" style="edgeStyle=orthogonalEdgeStyle;rounded=0;orthogonalLoop=1;jettySize=auto;html=1;" edge="1" parent="1" source="5b584qVkZsWunDgtIIDM-139" target="5b584qVkZsWunDgtIIDM-142">
          <mxGeometry relative="1" as="geometry" />
        </mxCell>
        <mxCell id="5b584qVkZsWunDgtIIDM-139" value="sust-capex-ctrl" style="rounded=0;whiteSpace=wrap;html=1;" vertex="1" parent="1">
          <mxGeometry x="162" y="700" width="120" height="60" as="geometry" />
        </mxCell>
        <mxCell id="5b584qVkZsWunDgtIIDM-140" value="" style="edgeStyle=orthogonalEdgeStyle;rounded=0;orthogonalLoop=1;jettySize=auto;html=1;" edge="1" parent="1" source="5b584qVkZsWunDgtIIDM-141" target="5b584qVkZsWunDgtIIDM-139">
          <mxGeometry relative="1" as="geometry" />
        </mxCell>
        <mxCell id="5b584qVkZsWunDgtIIDM-141" value="inicio" style="strokeWidth=2;html=1;shape=mxgraph.flowchart.start_2;whiteSpace=wrap;" vertex="1" parent="1">
          <mxGeometry x="46" y="710" width="40" height="40" as="geometry" />
        </mxCell>
        <mxCell id="5b584qVkZsWunDgtIIDM-175" value="" style="edgeStyle=orthogonalEdgeStyle;rounded=0;orthogonalLoop=1;jettySize=auto;html=1;" edge="1" parent="1" source="5b584qVkZsWunDgtIIDM-142" target="5b584qVkZsWunDgtIIDM-174">
          <mxGeometry relative="1" as="geometry" />
        </mxCell>
        <mxCell id="5b584qVkZsWunDgtIIDM-142" value="sust-capex-intermedia" style="rounded=0;whiteSpace=wrap;html=1;" vertex="1" parent="1">
          <mxGeometry x="332" y="700" width="120" height="60" as="geometry" />
        </mxCell>
        <mxCell id="5b584qVkZsWunDgtIIDM-143" value="" style="edgeStyle=orthogonalEdgeStyle;rounded=0;orthogonalLoop=1;jettySize=auto;html=1;" edge="1" parent="1" source="5b584qVkZsWunDgtIIDM-144" target="5b584qVkZsWunDgtIIDM-147">
          <mxGeometry relative="1" as="geometry" />
        </mxCell>
        <mxCell id="5b584qVkZsWunDgtIIDM-144" value="sust-pcd-ctrl" style="rounded=0;whiteSpace=wrap;html=1;" vertex="1" parent="1">
          <mxGeometry x="1206" y="710" width="120" height="60" as="geometry" />
        </mxCell>
        <mxCell id="5b584qVkZsWunDgtIIDM-145" value="" style="edgeStyle=orthogonalEdgeStyle;rounded=0;orthogonalLoop=1;jettySize=auto;html=1;" edge="1" parent="1" source="5b584qVkZsWunDgtIIDM-146" target="5b584qVkZsWunDgtIIDM-144">
          <mxGeometry relative="1" as="geometry" />
        </mxCell>
        <mxCell id="5b584qVkZsWunDgtIIDM-146" value="inicio" style="strokeWidth=2;html=1;shape=mxgraph.flowchart.start_2;whiteSpace=wrap;" vertex="1" parent="1">
          <mxGeometry x="1090" y="720" width="40" height="40" as="geometry" />
        </mxCell>
        <mxCell id="5b584qVkZsWunDgtIIDM-180" value="" style="edgeStyle=orthogonalEdgeStyle;rounded=0;orthogonalLoop=1;jettySize=auto;html=1;" edge="1" parent="1" source="5b584qVkZsWunDgtIIDM-147" target="5b584qVkZsWunDgtIIDM-179">
          <mxGeometry relative="1" as="geometry" />
        </mxCell>
        <mxCell id="5b584qVkZsWunDgtIIDM-147" value="sust-pcd-intermedia" style="rounded=0;whiteSpace=wrap;html=1;" vertex="1" parent="1">
          <mxGeometry x="1376" y="710" width="120" height="60" as="geometry" />
        </mxCell>
        <mxCell id="5b584qVkZsWunDgtIIDM-148" value="" style="edgeStyle=orthogonalEdgeStyle;rounded=0;orthogonalLoop=1;jettySize=auto;html=1;" edge="1" parent="1" source="5b584qVkZsWunDgtIIDM-149" target="5b584qVkZsWunDgtIIDM-152">
          <mxGeometry relative="1" as="geometry" />
        </mxCell>
        <mxCell id="5b584qVkZsWunDgtIIDM-149" value="sust-cuenta12-ctrl" style="rounded=0;whiteSpace=wrap;html=1;" vertex="1" parent="1">
          <mxGeometry x="162" y="940" width="120" height="60" as="geometry" />
        </mxCell>
        <mxCell id="5b584qVkZsWunDgtIIDM-150" value="" style="edgeStyle=orthogonalEdgeStyle;rounded=0;orthogonalLoop=1;jettySize=auto;html=1;" edge="1" parent="1" source="5b584qVkZsWunDgtIIDM-151" target="5b584qVkZsWunDgtIIDM-149">
          <mxGeometry relative="1" as="geometry" />
        </mxCell>
        <mxCell id="5b584qVkZsWunDgtIIDM-151" value="inicio" style="strokeWidth=2;html=1;shape=mxgraph.flowchart.start_2;whiteSpace=wrap;" vertex="1" parent="1">
          <mxGeometry x="46" y="950" width="40" height="40" as="geometry" />
        </mxCell>
        <mxCell id="5b584qVkZsWunDgtIIDM-152" value="sust-cuenta12-intermedia" style="rounded=0;whiteSpace=wrap;html=1;" vertex="1" parent="1">
          <mxGeometry x="332" y="940" width="120" height="60" as="geometry" />
        </mxCell>
        <mxCell id="5b584qVkZsWunDgtIIDM-171" style="edgeStyle=orthogonalEdgeStyle;rounded=0;orthogonalLoop=1;jettySize=auto;html=1;" edge="1" parent="1" source="5b584qVkZsWunDgtIIDM-153">
          <mxGeometry relative="1" as="geometry">
            <mxPoint x="1743" y="460" as="targetPoint" />
          </mxGeometry>
        </mxCell>
        <mxCell id="5b584qVkZsWunDgtIIDM-153" value="sust-ipf-fact-soporte" style="rounded=0;whiteSpace=wrap;html=1;" vertex="1" parent="1">
          <mxGeometry x="1529" y="480" width="120" height="60" as="geometry" />
        </mxCell>
        <mxCell id="5b584qVkZsWunDgtIIDM-154" value="sust-int-fact_soporte" style="rounded=0;whiteSpace=wrap;html=1;" vertex="1" parent="1">
          <mxGeometry x="470" y="260" width="120" height="60" as="geometry" />
        </mxCell>
        <mxCell id="5b584qVkZsWunDgtIIDM-156" style="edgeStyle=orthogonalEdgeStyle;rounded=0;orthogonalLoop=1;jettySize=auto;html=1;entryX=0.317;entryY=1.047;entryDx=0;entryDy=0;entryPerimeter=0;" edge="1" parent="1" source="5b584qVkZsWunDgtIIDM-154" target="5b584qVkZsWunDgtIIDM-4">
          <mxGeometry relative="1" as="geometry" />
        </mxCell>
        <mxCell id="5b584qVkZsWunDgtIIDM-157" value="sust-multi-fact_soporte" style="rounded=0;whiteSpace=wrap;html=1;" vertex="1" parent="1">
          <mxGeometry x="1090" y="70" width="120" height="60" as="geometry" />
        </mxCell>
        <mxCell id="5b584qVkZsWunDgtIIDM-161" style="edgeStyle=orthogonalEdgeStyle;rounded=0;orthogonalLoop=1;jettySize=auto;html=1;" edge="1" parent="1" source="5b584qVkZsWunDgtIIDM-159">
          <mxGeometry relative="1" as="geometry">
            <mxPoint x="1743" y="230" as="targetPoint" />
          </mxGeometry>
        </mxCell>
        <mxCell id="5b584qVkZsWunDgtIIDM-159" value="sust-af-fact_soporte" style="rounded=0;whiteSpace=wrap;html=1;" vertex="1" parent="1">
          <mxGeometry x="1523" y="250" width="120" height="60" as="geometry" />
        </mxCell>
        <mxCell id="5b584qVkZsWunDgtIIDM-162" value="regionalizacion" style="rounded=0;whiteSpace=wrap;html=1;" vertex="1" parent="1">
          <mxGeometry x="1963" y="160" width="120" height="60" as="geometry" />
        </mxCell>
        <mxCell id="5b584qVkZsWunDgtIIDM-168" style="edgeStyle=orthogonalEdgeStyle;rounded=0;orthogonalLoop=1;jettySize=auto;html=1;" edge="1" parent="1" source="5b584qVkZsWunDgtIIDM-166">
          <mxGeometry relative="1" as="geometry">
            <mxPoint x="713" y="455" as="targetPoint" />
          </mxGeometry>
        </mxCell>
        <mxCell id="5b584qVkZsWunDgtIIDM-166" value="sust-mg-fact-soporte" style="rounded=0;whiteSpace=wrap;html=1;" vertex="1" parent="1">
          <mxGeometry x="489" y="475" width="120" height="60" as="geometry" />
        </mxCell>
        <mxCell id="5b584qVkZsWunDgtIIDM-169" value="regionalizacion" style="rounded=0;whiteSpace=wrap;html=1;" vertex="1" parent="1">
          <mxGeometry x="933" y="390" width="120" height="60" as="geometry" />
        </mxCell>
        <mxCell id="5b584qVkZsWunDgtIIDM-172" value="regionalizacion" style="rounded=0;whiteSpace=wrap;html=1;" vertex="1" parent="1">
          <mxGeometry x="1973" y="390" width="120" height="60" as="geometry" />
        </mxCell>
        <mxCell id="5b584qVkZsWunDgtIIDM-176" style="edgeStyle=orthogonalEdgeStyle;rounded=0;orthogonalLoop=1;jettySize=auto;html=1;" edge="1" parent="1" source="5b584qVkZsWunDgtIIDM-174">
          <mxGeometry relative="1" as="geometry">
            <mxPoint x="700" y="680" as="targetPoint" />
          </mxGeometry>
        </mxCell>
        <mxCell id="5b584qVkZsWunDgtIIDM-174" value="sust-ipf-fact-soporte" style="rounded=0;whiteSpace=wrap;html=1;" vertex="1" parent="1">
          <mxGeometry x="486" y="700" width="120" height="60" as="geometry" />
        </mxCell>
        <mxCell id="5b584qVkZsWunDgtIIDM-177" value="regionalizacion" style="rounded=0;whiteSpace=wrap;html=1;" vertex="1" parent="1">
          <mxGeometry x="920" y="610" width="120" height="60" as="geometry" />
        </mxCell>
        <mxCell id="5b584qVkZsWunDgtIIDM-181" style="edgeStyle=orthogonalEdgeStyle;rounded=0;orthogonalLoop=1;jettySize=auto;html=1;" edge="1" parent="1" source="5b584qVkZsWunDgtIIDM-179">
          <mxGeometry relative="1" as="geometry">
            <mxPoint x="1760" y="680" as="targetPoint" />
          </mxGeometry>
        </mxCell>
        <mxCell id="5b584qVkZsWunDgtIIDM-179" value="sust-ipf-fact-soporte" style="rounded=0;whiteSpace=wrap;html=1;" vertex="1" parent="1">
          <mxGeometry x="1533" y="710" width="120" height="60" as="geometry" />
        </mxCell>
        <mxCell id="5b584qVkZsWunDgtIIDM-182" value="regionalizacion" style="rounded=0;whiteSpace=wrap;html=1;" vertex="1" parent="1">
          <mxGeometry x="1980" y="610" width="120" height="60" as="geometry" />
        </mxCell>
        <mxCell id="5b584qVkZsWunDgtIIDM-184" value="sust-ipf-fact-soporte" style="rounded=0;whiteSpace=wrap;html=1;" vertex="1" parent="1">
          <mxGeometry x="489" y="940" width="120" height="60" as="geometry" />
        </mxCell>
        <mxCell id="5b584qVkZsWunDgtIIDM-185" style="edgeStyle=orthogonalEdgeStyle;rounded=0;orthogonalLoop=1;jettySize=auto;html=1;entryX=0.388;entryY=1.078;entryDx=0;entryDy=0;entryPerimeter=0;" edge="1" parent="1" source="5b584qVkZsWunDgtIIDM-184" target="5b584qVkZsWunDgtIIDM-72">
          <mxGeometry relative="1" as="geometry" />
        </mxCell>
        <mxCell id="5b584qVkZsWunDgtIIDM-186" value="regionalizacion" style="rounded=0;whiteSpace=wrap;html=1;" vertex="1" parent="1">
          <mxGeometry x="940" y="850" width="120" height="60" as="geometry" />
        </mxCell>
      </root>
    </mxGraphModel>
  </diagram>
</mxfile>
